<svg xmlns="http://www.w3.org/2000/svg" viewBox="0 0 64 64"><title>Artboard 1</title><path d="M1,52.5a20.6,20.6,0,0,0,14.2-8.6,28.6,28.6,0,0,0,5.1-13.4,18.4,18.4,0,0,1,5.1-9.8A13,13,0,0,1,33.5,17a13,13,0,0,1,8.1,3.7,18.4,18.4,0,0,1,5.1,9.8,30.2,30.2,0,0,0,5.1,13.4A22.4,22.4,0,0,0,63,52.5" fill="none" stroke="#000" stroke-miterlimit="10" stroke-width="3"/><line x1="11.4" y1="52" x2="11.4" y2="54.9" fill="none" stroke="#000" stroke-miterlimit="10" stroke-width="4"/><line x1="52.6" y1="52" x2="52.6" y2="54.9" fill="none" stroke="#000" stroke-miterlimit="10" stroke-width="4"/><line x1="18.9" y1="46" x2="18.9" y2="55" fill="none" stroke="#000" stroke-miterlimit="10" stroke-width="4"/><line x1="47" y1="46" x2="47" y2="55" fill="none" stroke="#000" stroke-miterlimit="10" stroke-width="4"/><line x1="25.5" y1="28" x2="25.5" y2="54.9" fill="none" stroke="#000" stroke-miterlimit="10" stroke-width="4"/><line x1="40.4" y1="28" x2="40.4" y2="54.9" fill="none" stroke="#000" stroke-miterlimit="10" stroke-width="4"/><line x1="32.9" y1="54.9" x2="32.9" y2="21" fill="none" stroke="#000" stroke-miterlimit="10" stroke-width="4"/></svg>